<?xml version="1.0" encoding="utf-8"?>
<svg xmlns="http://www.w3.org/2000/svg"
	xmlns:xlink="http://www.w3.org/1999/xlink"
	width="167px" height="181px" viewBox="0 0 167 181">
<defs>
<symbol id="symbol0"><path fillRule="evenodd" d="M 63.23 172.14C 49.82 164.08 36.27 156.26 22.58 148.67 8.9 141.08 2.19 129.46 2.46 113.82 2.74 98.17 2.74 82.53 2.46 66.88 2.19 51.24 8.9 39.62 22.58 32.03 36.27 24.44 49.82 16.62 63.23 8.56 76.65 0.51 90.06 0.51 103.47 8.56 116.89 16.62 130.44 24.44 144.12 32.03 157.81 39.62 164.51 51.24 164.24 66.88 163.97 82.53 163.97 98.17 164.24 113.82 164.51 129.46 157.81 141.08 144.12 148.67 130.44 156.26 116.89 164.08 103.47 172.14 90.06 180.19 76.65 180.19 63.23 172.14Z"/></symbol></defs>
<g><use xlink:href="#symbol0" x="0" y="0" width="167" height="181" fill="rgb(255,255,255)" opacity="0.10"/><use xlink:href="#symbol0" x="0" y="0" width="167" height="181" fill="none" stroke="rgb(255,255,255)" stroke-width="4.00px"/></g></svg>